# Blender 4.3.2
# www.blender.org
mtllib fish.mtl
o Cube
v -2.431813 0.556393 0.440435
v -2.431813 0.556393 -0.419565
v -0.571812 0.556393 -0.419565
v -0.571812 0.556393 0.440435
v -2.431813 1.396393 0.440435
v -2.431813 1.396393 -0.419565
v -0.571812 1.396393 -0.419565
v -0.571812 1.396393 0.440435
vn -1.0000 -0.0000 -0.0000
vn -0.0000 -0.0000 -1.0000
vn 1.0000 -0.0000 -0.0000
vn -0.0000 -0.0000 1.0000
vn -0.0000 -1.0000 -0.0000
vn -0.0000 1.0000 -0.0000
s 0
usemtl Material
f 5//1 6//1 2//1 1//1
f 6//2 7//2 3//2 2//2
f 7//3 8//3 4//3 3//3
f 8//4 5//4 1//4 4//4
f 1//5 2//5 3//5 4//5
f 8//6 7//6 6//6 5//6
o Cube.009
v -1.313626 1.423212 1.381539
v -1.341089 1.453712 1.268776
v -1.757250 1.078999 1.268776
v -1.729788 1.048499 1.381539
v -0.785454 0.836617 1.094242
v -0.812916 0.867117 0.981479
v -1.229077 0.492404 0.981479
v -1.201615 0.461903 1.094242
vn 0.7431 0.6691 -0.0000
vn -0.2289 0.2542 -0.9397
vn -0.7431 -0.6691 -0.0000
vn 0.2289 -0.2542 0.9397
vn -0.6288 0.6983 0.3420
vn 0.6288 -0.6983 -0.3420
s 0
usemtl Material
f 13//7 14//7 10//7 9//7
f 14//8 15//8 11//8 10//8
f 15//9 16//9 12//9 11//9
f 16//10 13//10 9//10 12//10
f 9//11 10//11 11//11 12//11
f 16//12 15//12 14//12 13//12
o Cube.004
v -0.100253 1.540820 -0.227895
v -0.100253 1.540820 -0.307895
v 0.099747 1.540820 -0.307895
v 0.099747 1.540820 -0.227895
v -0.100253 1.640820 -0.227895
v -0.100253 1.640820 -0.307895
v 0.099747 1.640820 -0.307895
v 0.099747 1.640820 -0.227895
vn -1.0000 -0.0000 -0.0000
vn -0.0000 -0.0000 -1.0000
vn 1.0000 -0.0000 -0.0000
vn -0.0000 -0.0000 1.0000
vn -0.0000 -1.0000 -0.0000
vn -0.0000 1.0000 -0.0000
s 0
usemtl Material.005
f 21//13 22//13 18//13 17//13
f 22//14 23//14 19//14 18//14
f 23//15 24//15 20//15 19//15
f 24//16 21//16 17//16 20//16
f 17//17 18//17 19//17 20//17
f 24//18 23//18 22//18 21//18
o Cube.003
v 0.005731 1.357913 -0.152491
v 0.005731 1.357913 -0.492491
v 0.085731 1.357913 -0.492491
v 0.085731 1.357913 -0.152491
v 0.005731 1.677913 -0.152491
v 0.005731 1.677913 -0.492491
v 0.085731 1.677913 -0.492491
v 0.085731 1.677913 -0.152491
vn -1.0000 -0.0000 -0.0000
vn -0.0000 -0.0000 -1.0000
vn 1.0000 -0.0000 -0.0000
vn -0.0000 -0.0000 1.0000
vn -0.0000 -1.0000 -0.0000
vn -0.0000 1.0000 -0.0000
s 0
usemtl Material.004
f 29//19 30//19 26//19 25//19
f 30//20 31//20 27//20 26//20
f 31//21 32//21 28//21 27//21
f 32//22 29//22 25//22 28//22
f 25//23 26//23 27//23 28//23
f 32//24 31//24 30//24 29//24
o Cube.001
v -0.086058 0.934761 -0.069949
v -0.086058 0.934761 -0.789949
v 0.053942 0.934761 -0.789949
v 0.053942 0.934761 -0.069949
v -0.086058 1.754761 -0.069949
v -0.086058 1.754761 -0.789949
v 0.053942 1.754761 -0.789949
v 0.053942 1.754761 -0.069949
vn -1.0000 -0.0000 -0.0000
vn -0.0000 -0.0000 -1.0000
vn 1.0000 -0.0000 -0.0000
vn -0.0000 -0.0000 1.0000
vn -0.0000 -1.0000 -0.0000
vn -0.0000 1.0000 -0.0000
s 0
f 37//25 38//25 34//25 33//25
f 38//26 39//26 35//26 34//26
f 39//27 40//27 36//27 35//27
f 40//28 37//28 33//28 36//28
f 33//29 34//29 35//29 36//29
f 40//30 39//30 38//30 37//30
o Text
v 4.879268 5.159097 -1.049649
v 4.712268 5.159097 -0.886649
v 4.712268 5.159097 -0.876649
v 4.790268 5.159097 -0.876649
v 4.790268 5.159097 -0.639649
v 4.791288 5.159097 -0.619859
v 4.794346 5.159097 -0.601080
v 4.799439 5.159097 -0.583446
v 4.806564 5.159097 -0.567094
v 4.815716 5.159097 -0.552158
v 4.826893 5.159097 -0.538774
v 4.840090 5.159097 -0.527078
v 4.855305 5.159097 -0.517205
v 4.872533 5.159097 -0.509290
v 4.891772 5.159097 -0.503469
v 4.913018 5.159097 -0.499877
v 4.936268 5.159097 -0.498649
v 4.943892 5.159097 -0.498915
v 4.952185 5.159097 -0.499691
v 4.961018 5.159097 -0.500946
v 4.970268 5.159097 -0.502649
v 4.979809 5.159097 -0.504769
v 4.989518 5.159097 -0.507274
v 4.999268 5.159097 -0.510134
v 5.008934 5.159097 -0.513316
v 5.018393 5.159097 -0.516790
v 5.027518 5.159097 -0.520524
v 5.036184 5.159097 -0.524488
v 5.044268 5.159097 -0.528649
v 5.044268 5.159097 -0.611649
v 5.035329 5.159097 -0.606379
v 5.026508 5.159097 -0.601566
v 5.017799 5.159097 -0.597212
v 5.009193 5.159097 -0.593316
v 5.000686 5.159097 -0.589879
v 4.992268 5.159097 -0.586899
v 4.983933 5.159097 -0.584379
v 4.975675 5.159097 -0.582316
v 4.967486 5.159097 -0.580712
v 4.959360 5.159097 -0.579566
v 4.951290 5.159097 -0.578879
v 4.943268 5.159097 -0.578649
v 4.936547 5.159097 -0.578975
v 4.929500 5.159097 -0.580006
v 4.922299 5.159097 -0.581821
v 4.915120 5.159097 -0.584501
v 4.908135 5.159097 -0.588126
v 4.901518 5.159097 -0.592774
v 4.895442 5.159097 -0.598527
v 4.890082 5.159097 -0.605464
v 4.885612 5.159097 -0.613665
v 4.882203 5.159097 -0.623210
v 4.880031 5.159097 -0.634178
v 4.879268 5.159097 -0.646649
v 4.879268 5.159097 -0.876649
v 5.021268 5.159097 -0.876649
v 5.021268 5.159097 -0.956649
v 4.879268 5.159097 -0.956649
v 4.699268 5.159097 -0.956649
v 4.585268 5.159097 -0.956649
v 4.457268 5.159097 -0.802649
v 4.324268 5.159097 -0.956649
v 4.212268 5.159097 -0.956649
v 4.401268 5.159097 -0.735649
v 4.212268 5.159097 -0.507649
v 4.324268 5.159097 -0.507649
v 4.457268 5.159097 -0.668649
v 4.598268 5.159097 -0.507649
v 4.712268 5.159097 -0.507649
v 4.514268 5.159097 -0.735649
v 4.171268 5.159097 -0.637649
v 4.158286 5.159097 -0.629445
v 4.145332 5.159097 -0.621844
v 4.132393 5.159097 -0.614868
v 4.119453 5.159097 -0.608538
v 4.106499 5.159097 -0.602875
v 4.093518 5.159097 -0.597899
v 4.080494 5.159097 -0.593632
v 4.067416 5.159097 -0.590094
v 4.054268 5.159097 -0.587306
v 4.041036 5.159097 -0.585288
v 4.027708 5.159097 -0.584063
v 4.014268 5.159097 -0.583649
v 3.993498 5.159097 -0.584606
v 3.974194 5.159097 -0.587469
v 3.956362 5.159097 -0.592228
v 3.940009 5.159097 -0.598872
v 3.925142 5.159097 -0.607391
v 3.911768 5.159097 -0.617774
v 3.899894 5.159097 -0.630012
v 3.889527 5.159097 -0.644094
v 3.880674 5.159097 -0.660009
v 3.873342 5.159097 -0.677747
v 3.867537 5.159097 -0.697297
v 3.863268 5.159097 -0.718649
v 4.179268 5.159097 -0.718649
v 4.177703 5.159097 -0.758381
v 4.173087 5.159097 -0.794585
v 4.165533 5.159097 -0.827274
v 4.155157 5.159097 -0.856464
v 4.142072 5.159097 -0.882168
v 4.126393 5.159097 -0.904399
v 4.108234 5.159097 -0.923173
v 4.087712 5.159097 -0.938501
v 4.064939 5.159097 -0.950399
v 4.040031 5.159097 -0.958881
v 4.013103 5.159097 -0.963960
v 3.984268 5.159097 -0.965649
v 3.954087 5.159097 -0.963761
v 3.925657 5.159097 -0.958205
v 3.899143 5.159097 -0.949149
v 3.874712 5.159097 -0.936761
v 3.852532 5.159097 -0.921205
v 3.832768 5.159097 -0.902649
v 3.815587 5.159097 -0.881261
v 3.801157 5.159097 -0.857205
v 3.789643 5.159097 -0.830649
v 3.781212 5.159097 -0.801761
v 3.776031 5.159097 -0.770705
v 3.774268 5.159097 -0.737649
v 3.775883 5.159097 -0.706898
v 3.780694 5.159097 -0.676890
v 3.788643 5.159097 -0.647993
v 3.799675 5.159097 -0.620575
v 3.813735 5.159097 -0.595005
v 3.830768 5.159097 -0.571649
v 3.850717 5.159097 -0.550877
v 3.873527 5.159097 -0.533057
v 3.899143 5.159097 -0.518556
v 3.927508 5.159097 -0.507742
v 3.958569 5.159097 -0.500984
v 3.992268 5.159097 -0.498649
v 4.010724 5.159097 -0.499005
v 4.028166 5.159097 -0.500075
v 4.044705 5.159097 -0.501868
v 4.060453 5.159097 -0.504390
v 4.075520 5.159097 -0.507648
v 4.090018 5.159097 -0.511649
v 4.104057 5.159097 -0.516401
v 4.117749 5.159097 -0.521909
v 4.131205 5.159097 -0.528181
v 4.144536 5.159097 -0.535223
v 4.157853 5.159097 -0.543044
v 4.171268 5.159097 -0.551649
v 3.865268 5.159097 -0.777649
v 3.868871 5.159097 -0.794748
v 3.873675 5.159097 -0.810524
v 3.879674 5.159097 -0.824946
v 3.886860 5.159097 -0.837983
v 3.895227 5.159097 -0.849603
v 3.904768 5.159097 -0.859774
v 3.915475 5.159097 -0.868467
v 3.927342 5.159097 -0.875649
v 3.940361 5.159097 -0.881290
v 3.954527 5.159097 -0.885358
v 3.969831 5.159097 -0.887821
v 3.986268 5.159097 -0.888649
v 4.001511 5.159097 -0.887764
v 4.015712 5.159097 -0.885149
v 4.028830 5.159097 -0.880868
v 4.040823 5.159097 -0.874983
v 4.051650 5.159097 -0.867556
v 4.061268 5.159097 -0.858649
v 4.069636 5.159097 -0.848326
v 4.076712 5.159097 -0.836649
v 4.082455 5.159097 -0.823681
v 4.086823 5.159097 -0.809483
v 4.089775 5.159097 -0.794118
v 4.091268 5.159097 -0.777649
v 3.716268 5.159097 -1.189649
v 3.146268 5.159097 -1.189649
v 3.146268 5.159097 -1.101650
v 3.382268 5.159097 -1.101650
v 3.382268 5.159097 -0.507649
v 3.480268 5.159097 -0.507649
v 3.480268 5.159097 -1.101650
v 3.716268 5.159097 -1.101650
vn -0.0000 1.0000 -0.0000
vt 0.017544 0.000000
vt 1.000000 0.000000
vt 0.000000 0.000000
vt 0.982456 0.000000
vt 0.964912 0.000000
vt 0.035088 0.000000
vt 0.052632 0.000000
vt 0.070175 0.000000
vt 0.947368 0.000000
vt 0.929825 0.000000
vt 0.912281 0.000000
vt 0.087719 0.000000
vt 0.894737 0.000000
vt 0.877193 0.000000
vt 0.105263 0.000000
vt 0.859649 0.000000
vt 0.526316 0.000000
vt 0.491228 0.000000
vt 0.508772 0.000000
vt 0.543860 0.000000
vt 0.842105 0.000000
vt 0.561404 0.000000
vt 0.122807 0.000000
vt 0.824561 0.000000
vt 0.578947 0.000000
vt 0.596491 0.000000
vt 0.807018 0.000000
vt 0.614035 0.000000
vt 0.789474 0.000000
vt 0.631579 0.000000
vt 0.771930 0.000000
vt 0.649123 0.000000
vt 0.140351 0.000000
vt 0.666667 0.000000
vt 0.754386 0.000000
vt 0.684211 0.000000
vt 0.736842 0.000000
vt 0.701754 0.000000
vt 0.719298 0.000000
vt 0.157895 0.000000
vt 0.175439 0.000000
vt 0.192982 0.000000
vt 0.473684 0.000000
vt 0.210526 0.000000
vt 0.456140 0.000000
vt 0.438596 0.000000
vt 0.228070 0.000000
vt 0.421053 0.000000
vt 0.403509 0.000000
vt 0.385965 0.000000
vt 0.245614 0.000000
vt 0.368421 0.000000
vt 0.350877 0.000000
vt 0.263158 0.000000
vt 0.333333 0.000000
vt 0.315789 0.000000
vt 0.280702 0.000000
vt 0.298246 0.000000
vt 0.454545 0.000000
vt 0.272727 0.000000
vt 0.363636 0.000000
vt 0.181818 0.000000
vt 0.090909 0.000000
vt 0.545455 0.000000
vt 0.727273 0.000000
vt 0.909091 0.000000
vt 0.636364 0.000000
vt 0.818182 0.000000
vt 0.387755 0.000000
vt 0.367347 0.000000
vt 0.377551 0.000000
vt 0.357143 0.000000
vt 0.397959 0.000000
vt 0.346939 0.000000
vt 0.408163 0.000000
vt 0.336735 0.000000
vt 0.418367 0.000000
vt 0.326531 0.000000
vt 0.428571 0.000000
vt 0.316327 0.000000
vt 0.438776 0.000000
vt 0.306122 0.000000
vt 0.448980 0.000000
vt 0.877551 0.000000
vt 0.867347 0.000000
vt 0.887755 0.000000
vt 0.857143 0.000000
vt 0.897959 0.000000
vt 0.846939 0.000000
vt 0.908163 0.000000
vt 0.295918 0.000000
vt 0.836735 0.000000
vt 0.459184 0.000000
vt 0.918367 0.000000
vt 0.826531 0.000000
vt 0.928571 0.000000
vt 0.816327 0.000000
vt 0.938776 0.000000
vt 0.806122 0.000000
vt 0.948980 0.000000
vt 0.469388 0.000000
vt 0.285714 0.000000
vt 0.795918 0.000000
vt 0.959184 0.000000
vt 0.785714 0.000000
vt 0.969388 0.000000
vt 0.479592 0.000000
vt 0.275510 0.000000
vt 0.775510 0.000000
vt 0.979592 0.000000
vt 0.765306 0.000000
vt 0.989796 0.000000
vt 0.489796 0.000000
vt 0.755102 0.000000
vt 0.265306 0.000000
vt 0.500000 0.000000
vt 0.255102 0.000000
vt 0.510204 0.000000
vt 0.244898 0.000000
vt 0.234694 0.000000
vt 0.520408 0.000000
vt 0.224490 0.000000
vt 0.214286 0.000000
vt 0.530612 0.000000
vt 0.204082 0.000000
vt 0.540816 0.000000
vt 0.193878 0.000000
vt 0.010204 0.000000
vt 0.744898 0.000000
vt 0.183673 0.000000
vt 0.020408 0.000000
vt 0.030612 0.000000
vt 0.551020 0.000000
vt 0.173469 0.000000
vt 0.040816 0.000000
vt 0.051020 0.000000
vt 0.163265 0.000000
vt 0.061224 0.000000
vt 0.153061 0.000000
vt 0.071429 0.000000
vt 0.561224 0.000000
vt 0.081633 0.000000
vt 0.142857 0.000000
vt 0.091837 0.000000
vt 0.132653 0.000000
vt 0.102041 0.000000
vt 0.112245 0.000000
vt 0.122449 0.000000
vt 0.571429 0.000000
vt 0.734694 0.000000
vt 0.581633 0.000000
vt 0.724490 0.000000
vt 0.714286 0.000000
vt 0.591837 0.000000
vt 0.704082 0.000000
vt 0.693878 0.000000
vt 0.602041 0.000000
vt 0.683673 0.000000
vt 0.673469 0.000000
vt 0.612245 0.000000
vt 0.663265 0.000000
vt 0.653061 0.000000
vt 0.642857 0.000000
vt 0.622449 0.000000
vt 0.632653 0.000000
s 0
f 42/1/31 98/2/31 41/3/31
f 42/1/31 97/4/31 98/2/31
f 42/1/31 96/5/31 97/4/31
f 43/6/31 96/5/31 42/1/31
f 44/7/31 96/5/31 43/6/31
f 45/8/31 95/9/31 44/7/31
f 95/9/31 96/5/31 44/7/31
f 45/8/31 94/10/31 95/9/31
f 45/8/31 93/11/31 94/10/31
f 46/12/31 93/11/31 45/8/31
f 46/12/31 92/13/31 93/11/31
f 46/12/31 91/14/31 92/13/31
f 47/15/31 91/14/31 46/12/31
f 47/15/31 90/16/31 91/14/31
f 71/17/31 69/18/31 70/19/31
f 72/20/31 69/18/31 71/17/31
f 47/15/31 89/21/31 90/16/31
f 73/22/31 69/18/31 72/20/31
f 48/23/31 89/21/31 47/15/31
f 48/23/31 88/24/31 89/21/31
f 74/25/31 69/18/31 73/22/31
f 75/26/31 69/18/31 74/25/31
f 48/23/31 87/27/31 88/24/31
f 76/28/31 69/18/31 75/26/31
f 48/23/31 86/29/31 87/27/31
f 77/30/31 69/18/31 76/28/31
f 48/23/31 85/31/31 86/29/31
f 78/32/31 69/18/31 77/30/31
f 49/33/31 85/31/31 48/23/31
f 79/34/31 69/18/31 78/32/31
f 49/33/31 84/35/31 85/31/31
f 80/36/31 69/18/31 79/34/31
f 49/33/31 83/37/31 84/35/31
f 81/38/31 69/18/31 80/36/31
f 49/33/31 82/39/31 83/37/31
f 82/39/31 69/18/31 81/38/31
f 49/33/31 69/18/31 82/39/31
f 50/40/31 69/18/31 49/33/31
f 51/41/31 69/18/31 50/40/31
f 52/42/31 69/18/31 51/41/31
f 52/42/31 68/43/31 69/18/31
f 53/44/31 68/43/31 52/42/31
f 53/44/31 67/45/31 68/43/31
f 53/44/31 66/46/31 67/45/31
f 54/47/31 66/46/31 53/44/31
f 54/47/31 65/48/31 66/46/31
f 54/47/31 64/49/31 65/48/31
f 54/47/31 63/50/31 64/49/31
f 55/51/31 63/50/31 54/47/31
f 55/51/31 62/52/31 63/50/31
f 55/51/31 61/53/31 62/52/31
f 56/54/31 61/53/31 55/51/31
f 56/54/31 60/55/31 61/53/31
f 56/54/31 59/56/31 60/55/31
f 57/57/31 59/56/31 56/54/31
f 57/57/31 58/58/31 59/56/31
f 104/59/31 102/60/31 103/61/31
f 104/59/31 101/62/31 102/60/31
f 101/62/31 99/3/31 100/63/31
f 101/62/31 110/2/31 99/3/31
f 104/59/31 110/2/31 101/62/31
f 105/64/31 110/2/31 104/59/31
f 105/64/31 107/65/31 110/2/31
f 107/65/31 109/66/31 110/2/31
f 105/64/31 106/67/31 107/65/31
f 108/68/31 109/66/31 107/65/31
f 149/69/31 147/70/31 148/71/31
f 149/69/31 146/72/31 147/70/31
f 150/73/31 146/72/31 149/69/31
f 150/73/31 145/74/31 146/72/31
f 151/75/31 145/74/31 150/73/31
f 151/75/31 144/76/31 145/74/31
f 152/77/31 144/76/31 151/75/31
f 152/77/31 143/78/31 144/76/31
f 153/79/31 143/78/31 152/77/31
f 153/79/31 142/80/31 143/78/31
f 154/81/31 142/80/31 153/79/31
f 154/81/31 141/82/31 142/80/31
f 155/83/31 197/84/31 154/81/31
f 197/84/31 141/82/31 154/81/31
f 155/83/31 196/85/31 197/84/31
f 198/86/31 141/82/31 197/84/31
f 155/83/31 195/87/31 196/85/31
f 199/88/31 141/82/31 198/86/31
f 155/83/31 194/89/31 195/87/31
f 200/90/31 141/82/31 199/88/31
f 200/90/31 140/91/31 141/82/31
f 155/83/31 193/92/31 194/89/31
f 156/93/31 193/92/31 155/83/31
f 201/94/31 140/91/31 200/90/31
f 156/93/31 192/95/31 193/92/31
f 202/96/31 140/91/31 201/94/31
f 156/93/31 191/97/31 192/95/31
f 203/98/31 140/91/31 202/96/31
f 156/93/31 190/99/31 191/97/31
f 204/100/31 140/91/31 203/98/31
f 157/101/31 190/99/31 156/93/31
f 204/100/31 139/102/31 140/91/31
f 157/101/31 189/103/31 190/99/31
f 205/104/31 139/102/31 204/100/31
f 157/101/31 188/105/31 189/103/31
f 206/106/31 139/102/31 205/104/31
f 158/107/31 188/105/31 157/101/31
f 206/106/31 138/108/31 139/102/31
f 158/107/31 187/109/31 188/105/31
f 207/110/31 138/108/31 206/106/31
f 158/107/31 186/111/31 187/109/31
f 208/112/31 138/108/31 207/110/31
f 159/113/31 186/111/31 158/107/31
f 159/113/31 185/114/31 186/111/31
f 208/112/31 137/115/31 138/108/31
f 209/2/31 137/115/31 208/112/31
f 159/113/31 209/2/31 185/114/31
f 159/113/31 137/115/31 209/2/31
f 160/116/31 137/115/31 159/113/31
f 160/116/31 136/117/31 137/115/31
f 161/118/31 135/119/31 160/116/31
f 135/119/31 136/117/31 160/116/31
f 161/118/31 134/120/31 135/119/31
f 162/121/31 134/120/31 161/118/31
f 162/121/31 133/122/31 134/120/31
f 162/121/31 132/123/31 133/122/31
f 163/124/31 132/123/31 162/121/31
f 163/124/31 131/125/31 132/123/31
f 164/126/31 131/125/31 163/124/31
f 164/126/31 130/127/31 131/125/31
f 112/128/31 184/129/31 111/3/31
f 164/126/31 129/130/31 130/127/31
f 113/131/31 184/129/31 112/128/31
f 114/132/31 184/129/31 113/131/31
f 165/133/31 129/130/31 164/126/31
f 165/133/31 128/134/31 129/130/31
f 115/135/31 184/129/31 114/132/31
f 116/136/31 184/129/31 115/135/31
f 165/133/31 127/137/31 128/134/31
f 117/138/31 184/129/31 116/136/31
f 165/133/31 126/139/31 127/137/31
f 118/140/31 184/129/31 117/138/31
f 166/141/31 126/139/31 165/133/31
f 119/142/31 184/129/31 118/140/31
f 166/141/31 125/143/31 126/139/31
f 120/144/31 184/129/31 119/142/31
f 166/141/31 124/145/31 125/143/31
f 121/146/31 184/129/31 120/144/31
f 122/147/31 184/129/31 121/146/31
f 166/141/31 123/148/31 124/145/31
f 123/148/31 184/129/31 122/147/31
f 166/141/31 184/129/31 123/148/31
f 167/149/31 184/129/31 166/141/31
f 167/149/31 183/150/31 184/129/31
f 168/151/31 183/150/31 167/149/31
f 168/151/31 182/152/31 183/150/31
f 168/151/31 181/153/31 182/152/31
f 169/154/31 181/153/31 168/151/31
f 169/154/31 180/155/31 181/153/31
f 169/154/31 179/156/31 180/155/31
f 170/157/31 179/156/31 169/154/31
f 170/157/31 178/158/31 179/156/31
f 170/157/31 177/159/31 178/158/31
f 171/160/31 177/159/31 170/157/31
f 171/160/31 176/161/31 177/159/31
f 171/160/31 175/162/31 176/161/31
f 171/160/31 174/163/31 175/162/31
f 172/164/31 174/163/31 171/160/31
f 172/164/31 173/165/31 174/163/31
f 212/102/31 210/3/31 211/143/31
f 212/102/31 217/2/31 210/3/31
f 213/79/31 217/2/31 212/102/31
f 214/149/31 216/87/31 213/79/31
f 216/87/31 217/2/31 213/79/31
f 214/149/31 215/153/31 216/87/31
o body
v -0.066220 -0.006806 -0.990701
v -0.066220 -0.006806 1.009299
v -2.066220 -0.006806 1.009299
v -2.066220 -0.006806 -0.990702
v -0.066220 1.993194 -0.990701
v -0.066221 1.993194 1.009299
v -2.066221 1.993194 1.009298
v -2.066220 1.993194 -0.990701
vn -0.0000 -1.0000 -0.0000
vn -0.0000 1.0000 -0.0000
vn 1.0000 -0.0000 -0.0000
vn -0.0000 -0.0000 1.0000
vn -1.0000 -0.0000 -0.0000
vn -0.0000 -0.0000 -1.0000
s 0
usemtl Material
f 218//32 219//32 220//32 221//32
f 222//33 225//33 224//33 223//33
f 218//34 222//34 223//34 219//34
f 219//35 223//35 224//35 220//35
f 220//36 224//36 225//36 221//36
f 222//37 218//37 221//37 225//37
o Cube.002
v -0.086058 1.004761 0.811779
v -0.086058 1.004761 0.171779
v 0.053942 1.004761 0.171779
v 0.053942 1.004761 0.811779
v -0.086058 1.684761 0.811779
v -0.086058 1.684761 0.171779
v 0.053942 1.684761 0.171779
v 0.053942 1.684761 0.811779
vn -1.0000 -0.0000 -0.0000
vn -0.0000 -0.0000 -1.0000
vn 1.0000 -0.0000 -0.0000
vn -0.0000 -0.0000 1.0000
vn -0.0000 -1.0000 -0.0000
vn -0.0000 1.0000 -0.0000
s 0
f 230//38 231//38 227//38 226//38
f 231//39 232//39 228//39 227//39
f 232//40 233//40 229//40 228//40
f 233//41 230//41 226//41 229//41
f 226//42 227//42 228//42 229//42
f 233//43 232//43 231//43 230//43
o Cube.005
v -0.100253 1.436585 -0.439368
v -0.100253 1.436585 -0.399368
v 0.099747 1.436585 -0.399368
v 0.099747 1.436585 -0.439368
v -0.100253 1.476585 -0.439368
v -0.100253 1.476585 -0.399368
v 0.099747 1.476585 -0.399368
v 0.099747 1.476585 -0.439368
vn -1.0000 -0.0000 -0.0000
vn -0.0000 -0.0000 1.0000
vn 1.0000 -0.0000 -0.0000
vn -0.0000 -0.0000 -1.0000
vn -0.0000 -1.0000 -0.0000
vn -0.0000 1.0000 -0.0000
s 0
usemtl Material.006
f 238//44 234//44 235//44 239//44
f 239//45 235//45 236//45 240//45
f 240//46 236//46 237//46 241//46
f 241//47 237//47 234//47 238//47
f 234//48 237//48 236//48 235//48
f 241//49 238//49 239//49 240//49
o Cube.006
v 0.005731 1.073160 0.532316
v 0.005731 1.073160 0.192316
v 0.085731 1.073160 0.192316
v 0.085731 1.073160 0.532316
v 0.005731 1.393160 0.532316
v 0.005731 1.393160 0.192316
v 0.085731 1.393160 0.192316
v 0.085731 1.393160 0.532316
vn -1.0000 -0.0000 -0.0000
vn -0.0000 -0.0000 -1.0000
vn 1.0000 -0.0000 -0.0000
vn -0.0000 -0.0000 1.0000
vn -0.0000 -1.0000 -0.0000
vn -0.0000 1.0000 -0.0000
s 0
usemtl Material.007
f 246//50 247//50 243//50 242//50
f 247//51 248//51 244//51 243//51
f 248//52 249//52 245//52 244//52
f 249//53 246//53 242//53 245//53
f 242//54 243//54 244//54 245//54
f 249//55 248//55 247//55 246//55
o Cube.007
v -0.100253 1.270305 0.306987
v -0.100253 1.270305 0.226987
v 0.099747 1.270305 0.226987
v 0.099747 1.270305 0.306987
v -0.100253 1.370305 0.306987
v -0.100253 1.370305 0.226987
v 0.099747 1.370305 0.226987
v 0.099747 1.370305 0.306987
vn -1.0000 -0.0000 -0.0000
vn -0.0000 -0.0000 -1.0000
vn 1.0000 -0.0000 -0.0000
vn -0.0000 -0.0000 1.0000
vn -0.0000 -1.0000 -0.0000
vn -0.0000 1.0000 -0.0000
s 0
usemtl Material.008
f 254//56 255//56 251//56 250//56
f 255//57 256//57 252//57 251//57
f 256//58 257//58 253//58 252//58
f 257//59 254//59 250//59 253//59
f 250//60 251//60 252//60 253//60
f 257//61 256//61 255//61 254//61
o Cube.008
v -0.100253 1.152067 0.431923
v -0.100253 1.152067 0.471923
v 0.099747 1.152067 0.471923
v 0.099747 1.152067 0.431923
v -0.100253 1.192067 0.431923
v -0.100253 1.192067 0.471923
v 0.099747 1.192067 0.471923
v 0.099747 1.192067 0.431923
vn -1.0000 -0.0000 -0.0000
vn -0.0000 -0.0000 1.0000
vn 1.0000 -0.0000 -0.0000
vn -0.0000 -0.0000 -1.0000
vn -0.0000 -1.0000 -0.0000
vn -0.0000 1.0000 -0.0000
s 0
usemtl Material.009
f 262//62 258//62 259//62 263//62
f 263//63 259//63 260//63 264//63
f 264//64 260//64 261//64 265//64
f 265//65 261//65 258//65 262//65
f 258//66 261//66 260//66 259//66
f 265//67 262//67 263//67 264//67
o Cube.000
v -1.349734 1.452420 -1.257339
v -1.321743 1.422403 -1.370102
v -1.731301 1.040483 -1.370102
v -1.759291 1.070500 -1.257339
v -0.811403 0.875132 -0.970042
v -0.783412 0.845116 -1.082805
v -1.192970 0.463196 -1.082805
v -1.220961 0.493213 -0.970042
vn 0.7314 0.6820 -0.0000
vn 0.2333 -0.2501 -0.9397
vn -0.7314 -0.6820 -0.0000
vn -0.2333 0.2501 0.9397
vn -0.6409 0.6872 -0.3420
vn 0.6409 -0.6872 0.3420
s 0
usemtl Material.011
f 270//68 271//68 267//68 266//68
f 271//69 272//69 268//69 267//69
f 272//70 273//70 269//70 268//70
f 273//71 270//71 266//71 269//71
f 266//72 267//72 268//72 269//72
f 273//73 272//73 271//73 270//73
o Cube.010
v -2.746087 0.736393 0.270435
v -2.746087 0.736393 -0.249565
v -1.066087 0.736393 -0.249565
v -1.066087 0.736393 0.270435
v -2.746087 1.216393 0.270435
v -2.746087 1.216393 -0.249565
v -1.066087 1.216393 -0.249565
v -1.066087 1.216393 0.270435
vn -1.0000 -0.0000 -0.0000
vn -0.0000 -0.0000 -1.0000
vn 1.0000 -0.0000 -0.0000
vn -0.0000 -0.0000 1.0000
vn -0.0000 -1.0000 -0.0000
vn -0.0000 1.0000 -0.0000
s 0
usemtl Material.012
f 278//74 279//74 275//74 274//74
f 279//75 280//75 276//75 275//75
f 280//76 281//76 277//76 276//76
f 281//77 278//77 274//77 277//77
f 274//78 275//78 276//78 277//78
f 281//79 280//79 279//79 278//79
o Cube.012
v -2.203917 0.556393 0.440435
v -2.203917 0.556393 -0.419565
v -0.343916 0.556393 -0.419565
v -0.343916 0.556393 0.440435
v -2.203917 1.396393 0.440435
v -2.203917 1.396393 -0.419565
v -0.343916 1.396393 -0.419565
v -0.343916 1.396393 0.440435
vn -1.0000 -0.0000 -0.0000
vn -0.0000 -0.0000 -1.0000
vn 1.0000 -0.0000 -0.0000
vn -0.0000 -0.0000 1.0000
vn -0.0000 -1.0000 -0.0000
vn -0.0000 1.0000 -0.0000
s 0
usemtl Material.013
f 286//80 287//80 283//80 282//80
f 287//81 288//81 284//81 283//81
f 288//82 289//82 285//82 284//82
f 289//83 286//83 282//83 285//83
f 282//84 283//84 284//84 285//84
f 289//85 288//85 287//85 286//85
o Cube.013
v -2.748243 0.770751 0.666985
v -2.748243 0.770751 0.186985
v -2.848243 0.770751 0.186985
v -2.848243 0.770751 0.666985
v -2.748243 1.230751 0.666985
v -2.748243 1.230751 0.186985
v -2.848243 1.230751 0.186985
v -2.848243 1.230751 0.666985
vn 1.0000 -0.0000 -0.0000
vn -0.0000 -0.0000 -1.0000
vn -1.0000 -0.0000 -0.0000
vn -0.0000 -0.0000 1.0000
vn -0.0000 -1.0000 -0.0000
vn -0.0000 1.0000 -0.0000
s 0
usemtl Material
f 294//86 290//86 291//86 295//86
f 295//87 291//87 292//87 296//87
f 296//88 292//88 293//88 297//88
f 297//89 293//89 290//89 294//89
f 290//90 293//90 292//90 291//90
f 297//91 294//91 295//91 296//91
o Cube.014
v -2.747464 0.770751 -0.069183
v -2.747464 0.770751 -0.549183
v -2.847464 0.770751 -0.549183
v -2.847464 0.770751 -0.069183
v -2.747464 1.230751 -0.069183
v -2.747464 1.230751 -0.549183
v -2.847464 1.230751 -0.549183
v -2.847464 1.230751 -0.069183
vn 1.0000 -0.0000 -0.0000
vn -0.0000 -0.0000 -1.0000
vn -1.0000 -0.0000 -0.0000
vn -0.0000 -0.0000 1.0000
vn -0.0000 -1.0000 -0.0000
vn -0.0000 1.0000 -0.0000
s 0
usemtl Material
f 302//92 298//92 299//92 303//92
f 303//93 299//93 300//93 304//93
f 304//94 300//94 301//94 305//94
f 305//95 301//95 298//95 302//95
f 298//96 301//96 300//96 299//96
f 305//97 302//97 303//97 304//97
